<?xml version="1.0" encoding="UTF-8"?>
<svg xmlns="http://www.w3.org/2000/svg" xmlns="http://www.w3.org/1999/xlink" width="100pt" height="100pt" viewBox="0 0 100 100" version="1.1">
<g id="surface1336745">
<path style=" stroke:none;fill-rule:nonzero;fill:rgb(100%,100%,100%);fill-opacity:1;" d="M 18 15 C 15.800781 15 14 16.800781 14 19 C 14 20.851562 15.285156 22.40625 17 22.855469 L 17 83 L 12 83 C 11.640625 82.996094 11.304688 83.183594 11.121094 83.496094 C 10.941406 83.808594 10.941406 84.191406 11.121094 84.503906 C 11.304688 84.816406 11.640625 85.003906 12 85 L 90 85 C 90.359375 85.003906 90.695312 84.816406 90.878906 84.503906 C 91.058594 84.191406 91.058594 83.808594 90.878906 83.496094 C 90.695312 83.183594 90.359375 82.996094 90 83 L 85 83 L 85 35.855469 C 86.714844 35.40625 88 33.851562 88 32 C 88 29.800781 86.199219 28 84 28 L 51 28 L 51 22.855469 C 52.714844 22.40625 54 20.851562 54 19 C 54 16.800781 52.199219 15 50 15 Z M 18 17 L 50 17 C 51.117188 17 52 17.882812 52 19 C 52 20.117188 51.117188 21 50 21 L 18 21 C 16.882812 21 16 20.117188 16 19 C 16 17.882812 16.882812 17 18 17 Z M 19 23 L 49 23 L 49 26 L 43.5 26 C 43.320312 25.996094 43.152344 26.09375 43.0625 26.246094 C 42.96875 26.402344 42.96875 26.597656 43.0625 26.753906 C 43.152344 26.90625 43.320312 27.003906 43.5 27 L 49 27 L 49 28.832031 C 48.980469 28.941406 48.980469 29.050781 49 29.160156 L 49 34.832031 C 48.980469 34.941406 48.980469 35.050781 49 35.160156 L 49 76 L 44.5 76 C 44.320312 75.996094 44.152344 76.09375 44.0625 76.246094 C 43.96875 76.402344 43.96875 76.597656 44.0625 76.753906 C 44.152344 76.90625 44.320312 77.003906 44.5 77 L 49 77 L 49 83 L 39 83 L 39 77 L 41.5 77 C 41.679688 77.003906 41.847656 76.90625 41.9375 76.753906 C 42.03125 76.597656 42.03125 76.402344 41.9375 76.246094 C 41.847656 76.09375 41.679688 75.996094 41.5 76 L 39 76 C 39 73.25 36.75 71 34 71 C 31.25 71 29 73.25 29 76 L 24.5 76 C 24.320312 75.996094 24.152344 76.09375 24.0625 76.246094 C 23.96875 76.402344 23.96875 76.597656 24.0625 76.753906 C 24.152344 76.90625 24.320312 77.003906 24.5 77 L 29 77 L 29 83 L 19 83 L 19 77 L 21.5 77 C 21.679688 77.003906 21.847656 76.90625 21.9375 76.753906 C 22.03125 76.597656 22.03125 76.402344 21.9375 76.246094 C 21.847656 76.09375 21.679688 75.996094 21.5 76 L 19 76 L 19 27 L 34.5 27 C 34.679688 27.003906 34.847656 26.90625 34.9375 26.753906 C 35.03125 26.597656 35.03125 26.402344 34.9375 26.246094 C 34.847656 26.09375 34.679688 25.996094 34.5 26 L 19 26 Z M 37.5 26 C 37.320312 25.996094 37.152344 26.09375 37.0625 26.246094 C 36.96875 26.402344 36.96875 26.597656 37.0625 26.753906 C 37.152344 26.90625 37.320312 27.003906 37.5 27 L 40.5 27 C 40.679688 27.003906 40.847656 26.90625 40.9375 26.753906 C 41.03125 26.597656 41.03125 26.402344 40.9375 26.246094 C 40.847656 26.09375 40.679688 25.996094 40.5 26 Z M 51 30 L 84 30 C 85.117188 30 86 30.882812 86 32 C 86 33.117188 85.117188 34 84 34 L 51 34 Z M 23.5 32 C 23.222656 32 23 32.222656 23 32.5 L 23 38.5 C 23 38.777344 23.222656 39 23.5 39 L 30.5 39 C 30.777344 39 31 38.777344 31 38.5 L 31 32.5 C 31 32.222656 30.777344 32 30.5 32 Z M 37.5 32 C 37.222656 32 37 32.222656 37 32.5 L 37 38.5 C 37 38.777344 37.222656 39 37.5 39 L 44.5 39 C 44.777344 39 45 38.777344 45 38.5 L 45 32.5 C 45 32.222656 44.777344 32 44.5 32 Z M 24 33 L 30 33 L 30 38 L 24 38 Z M 38 33 L 44 33 L 44 38 L 38 38 Z M 51 36 L 83 36 L 83 39 L 75.5 39 C 75.320312 38.996094 75.152344 39.09375 75.0625 39.246094 C 74.96875 39.402344 74.96875 39.597656 75.0625 39.753906 C 75.152344 39.90625 75.320312 40.003906 75.5 40 L 83 40 L 83 83 L 51 83 L 51 40 L 67.5 40 C 67.679688 40.003906 67.847656 39.90625 67.9375 39.753906 C 68.03125 39.597656 68.03125 39.402344 67.9375 39.246094 C 67.847656 39.09375 67.679688 38.996094 67.5 39 L 51 39 Z M 70.5 39 C 70.320312 38.996094 70.152344 39.09375 70.0625 39.246094 C 69.96875 39.402344 69.96875 39.597656 70.0625 39.753906 C 70.152344 39.90625 70.320312 40.003906 70.5 40 L 72.5 40 C 72.679688 40.003906 72.847656 39.90625 72.9375 39.753906 C 73.03125 39.597656 73.03125 39.402344 72.9375 39.246094 C 72.847656 39.09375 72.679688 38.996094 72.5 39 Z M 23.5 42 C 23.222656 42 23 42.222656 23 42.5 L 23 48.5 C 23 48.777344 23.222656 49 23.5 49 L 30.5 49 C 30.777344 49 31 48.777344 31 48.5 L 31 42.5 C 31 42.222656 30.777344 42 30.5 42 Z M 37.5 42 C 37.222656 42 37 42.222656 37 42.5 L 37 48.5 C 37 48.777344 37.222656 49 37.5 49 L 44.5 49 C 44.777344 49 45 48.777344 45 48.5 L 45 42.5 C 45 42.222656 44.777344 42 44.5 42 Z M 24 43 L 30 43 L 30 48 L 24 48 Z M 38 43 L 44 43 L 44 48 L 38 48 Z M 55.5 45 C 55.222656 45 55 45.222656 55 45.5 L 55 50.5 C 55 50.777344 55.222656 51 55.5 51 L 60.5 51 C 60.777344 51 61 50.777344 61 50.5 L 61 45.5 C 61 45.222656 60.777344 45 60.5 45 Z M 64.5 45 C 64.222656 45 64 45.222656 64 45.5 L 64 50.5 C 64 50.777344 64.222656 51 64.5 51 L 69.5 51 C 69.777344 51 70 50.777344 70 50.5 L 70 45.5 C 70 45.222656 69.777344 45 69.5 45 Z M 73.5 45 C 73.222656 45 73 45.222656 73 45.5 L 73 50.5 C 73 50.777344 73.222656 51 73.5 51 L 78.5 51 C 78.777344 51 79 50.777344 79 50.5 L 79 45.5 C 79 45.222656 78.777344 45 78.5 45 Z M 56 46 L 60 46 L 60 50 L 56 50 Z M 65 46 L 69 46 L 69 50 L 65 50 Z M 74 46 L 78 46 L 78 50 L 74 50 Z M 23.5 52 C 23.222656 52 23 52.222656 23 52.5 L 23 58.5 C 23 58.777344 23.222656 59 23.5 59 L 30.5 59 C 30.777344 59 31 58.777344 31 58.5 L 31 52.5 C 31 52.222656 30.777344 52 30.5 52 Z M 37.5 52 C 37.222656 52 37 52.222656 37 52.5 L 37 58.5 C 37 58.777344 37.222656 59 37.5 59 L 44.5 59 C 44.777344 59 45 58.777344 45 58.5 L 45 52.5 C 45 52.222656 44.777344 52 44.5 52 Z M 24 53 L 30 53 L 30 58 L 24 58 Z M 38 53 L 44 53 L 44 58 L 38 58 Z M 55.5 54 C 55.222656 54 55 54.222656 55 54.5 L 55 59.5 C 55 59.777344 55.222656 60 55.5 60 L 60.5 60 C 60.777344 60 61 59.777344 61 59.5 L 61 54.5 C 61 54.222656 60.777344 54 60.5 54 Z M 64.5 54 C 64.222656 54 64 54.222656 64 54.5 L 64 59.5 C 64 59.777344 64.222656 60 64.5 60 L 69.5 60 C 69.777344 60 70 59.777344 70 59.5 L 70 54.5 C 70 54.222656 69.777344 54 69.5 54 Z M 73.5 54 C 73.222656 54 73 54.222656 73 54.5 L 73 59.5 C 73 59.777344 73.222656 60 73.5 60 L 78.5 60 C 78.777344 60 79 59.777344 79 59.5 L 79 54.5 C 79 54.222656 78.777344 54 78.5 54 Z M 56 55 L 60 55 L 60 59 L 56 59 Z M 65 55 L 69 55 L 69 59 L 65 59 Z M 74 55 L 78 55 L 78 59 L 74 59 Z M 23.5 62 C 23.222656 62 23 62.222656 23 62.5 L 23 68.5 C 23 68.777344 23.222656 69 23.5 69 L 30.5 69 C 30.777344 69 31 68.777344 31 68.5 L 31 62.5 C 31 62.222656 30.777344 62 30.5 62 Z M 37.5 62 C 37.222656 62 37 62.222656 37 62.5 L 37 68.5 C 37 68.777344 37.222656 69 37.5 69 L 44.5 69 C 44.777344 69 45 68.777344 45 68.5 L 45 62.5 C 45 62.222656 44.777344 62 44.5 62 Z M 24 63 L 30 63 L 30 68 L 24 68 Z M 38 63 L 44 63 L 44 68 L 38 68 Z M 55.5 63 C 55.222656 63 55 63.222656 55 63.5 L 55 68.5 C 55 68.777344 55.222656 69 55.5 69 L 60.5 69 C 60.777344 69 61 68.777344 61 68.5 L 61 63.5 C 61 63.222656 60.777344 63 60.5 63 Z M 64.5 63 C 64.222656 63 64 63.222656 64 63.5 L 64 68.5 C 64 68.777344 64.222656 69 64.5 69 L 69.5 69 C 69.777344 69 70 68.777344 70 68.5 L 70 63.5 C 70 63.222656 69.777344 63 69.5 63 Z M 73.5 63 C 73.222656 63 73 63.222656 73 63.5 L 73 68.5 C 73 68.777344 73.222656 69 73.5 69 L 78.5 69 C 78.777344 69 79 68.777344 79 68.5 L 79 63.5 C 79 63.222656 78.777344 63 78.5 63 Z M 56 64 L 60 64 L 60 68 L 56 68 Z M 65 64 L 69 64 L 69 68 L 65 68 Z M 74 64 L 78 64 L 78 68 L 74 68 Z M 55.5 72 C 55.222656 72 55 72.222656 55 72.5 L 55 77.5 C 55 77.777344 55.222656 78 55.5 78 L 60.5 78 C 60.777344 78 61 77.777344 61 77.5 L 61 72.5 C 61 72.222656 60.777344 72 60.5 72 Z M 64.5 72 C 64.222656 72 64 72.222656 64 72.5 L 64 77.5 C 64 77.777344 64.222656 78 64.5 78 L 69.5 78 C 69.777344 78 70 77.777344 70 77.5 L 70 72.5 C 70 72.222656 69.777344 72 69.5 72 Z M 73.5 72 C 73.222656 72 73 72.222656 73 72.5 L 73 77.5 C 73 77.777344 73.222656 78 73.5 78 L 78.5 78 C 78.777344 78 79 77.777344 79 77.5 L 79 72.5 C 79 72.222656 78.777344 72 78.5 72 Z M 34 73 C 35.667969 73 37 74.332031 37 76 L 37 83 L 31 83 L 31 76 C 31 74.332031 32.332031 73 34 73 Z M 56 73 L 60 73 L 60 77 L 56 77 Z M 65 73 L 69 73 L 69 77 L 65 77 Z M 74 73 L 78 73 L 78 77 L 74 77 Z M 74 73 "/>
</g>
</svg>
