<?xml version="1.0" encoding="UTF-8"?>
<svg xmlns="http://www.w3.org/2000/svg" xmlns="http://www.w3.org/1999/xlink" width="64pt" height="64pt" viewBox="0 0 64 64" version="1.1">
<g id="surface1337022">
<path style=" stroke:none;fill-rule:nonzero;fill:rgb(100%,100%,100%);fill-opacity:1;" d="M 22.5 1 C 19.851562 1 17.398438 2.199219 15.800781 4.300781 C 15.300781 4.949219 15.398438 5.902344 16.050781 6.402344 C 16.300781 6.601562 16.648438 6.699219 16.949219 6.699219 C 17.398438 6.699219 17.851562 6.5 18.148438 6.152344 C 19.199219 4.800781 20.800781 4 22.5 4 C 23.949219 4 25.148438 4.550781 26.097656 5.550781 C 26.648438 6.148438 27.601562 6.199219 28.199219 5.652344 C 28.800781 5.101562 28.851562 4.148438 28.300781 3.550781 C 26.851562 1.898438 24.75 1 22.5 1 Z M 46.5 1 C 43.800781 1 41.300781 2.25 39.699219 4.402344 C 39.199219 5.050781 39.351562 6 40 6.5 C 40.25 6.699219 40.601562 6.800781 40.902344 6.800781 C 41.351562 6.800781 41.800781 6.601562 42.097656 6.199219 C 43.148438 4.800781 44.75 4 46.5 4 C 47.949219 4 49.148438 4.550781 50.097656 5.550781 C 50.648438 6.148438 51.601562 6.199219 52.199219 5.648438 C 52.800781 5.101562 52.851562 4.148438 52.300781 3.550781 C 50.851562 1.898438 48.75 1 46.5 1 Z M 8.5 9.5 C 7.648438 9.5 7 10.148438 7 11 L 7 30.449219 C 7 31.199219 7.5 31.851562 8.199219 32 C 9.148438 32.199219 10 31.449219 10 30.550781 L 10 21 L 59 21 L 59 58 L 10 58 L 10 45.550781 C 10 44.800781 9.5 44.148438 8.800781 44 C 7.851562 43.851562 7 44.550781 7 45.5 L 7 59.5 C 7 60.351562 7.648438 61 8.5 61 L 60.5 61 C 61.351562 61 62 60.351562 62 59.5 L 62 11 C 62 10.148438 61.351562 9.5 60.5 9.5 L 41.550781 9.5 C 41.25 9.5 41 9.75 41.050781 10.050781 C 41.351562 12.800781 43.601562 14.949219 46.402344 15 C 47.199219 15 47.949219 15.601562 48 16.402344 C 48.050781 17.300781 47.351562 18 46.5 18 C 42 18 38.25 14.449219 38 10 C 38 9.75 37.75 9.5 37.5 9.5 L 17.5 9.5 C 17.199219 9.5 16.949219 9.75 17 10.050781 C 17.300781 12.800781 19.550781 14.949219 22.351562 15 C 23.148438 15 23.898438 15.601562 23.949219 16.402344 C 24 17.300781 23.300781 18 22.449219 18 C 17.949219 18 14.199219 14.449219 13.949219 10 C 13.949219 9.75 13.699219 9.5 13.449219 9.5 Z M 25.480469 29 C 25.101562 29 24.726562 29.148438 24.449219 29.449219 C 23.851562 30.050781 23.851562 31 24.449219 31.550781 L 29.402344 36.5 L 8.5 36.5 C 7.648438 36.5 7 37.148438 7 38 C 7 38.851562 7.648438 39.5 8.5 39.5 L 29.402344 39.5 L 24.449219 44.449219 C 23.851562 45.050781 23.851562 46 24.449219 46.550781 C 24.75 46.851562 25.148438 47 25.5 47 C 25.851562 47 26.25 46.851562 26.550781 46.550781 L 34.050781 39.050781 C 34.648438 38.449219 34.648438 37.550781 34.050781 36.949219 L 26.550781 29.449219 C 26.25 29.148438 25.863281 29 25.480469 29 Z M 2.5 36.5 C 1.671875 36.5 1 37.171875 1 38 C 1 38.828125 1.671875 39.5 2.5 39.5 C 3.328125 39.5 4 38.828125 4 38 C 4 37.171875 3.328125 36.5 2.5 36.5 Z M 2.5 36.5 "/>
</g>
</svg>
