<?xml version="1.0" encoding="UTF-8"?>
<svg xmlns="http://www.w3.org/2000/svg" xmlns="http://www.w3.org/1999/xlink" width="64pt" height="64pt" viewBox="0 0 64 64" version="1.1">
<g id="surface2494593">
<path style=" stroke:none;fill-rule:nonzero;fill:rgb(100%,100%,100%);fill-opacity:1;" d="M 44.5 1 C 36.898438 1 30.75 7.148438 30.5 14.949219 C 30.300781 22.199219 37.25 31.75 41.402344 36.75 C 42.199219 37.699219 43.300781 38.199219 44.5 38.199219 C 45.699219 38.199219 46.800781 37.648438 47.597656 36.75 C 51.75 31.699219 58.75 22.199219 58.5 14.949219 C 58.25 7.148438 52.101562 1 44.5 1 Z M 26.367188 3.808594 C 26.261719 3.8125 26.15625 3.824219 26.050781 3.851562 C 17.050781 5.800781 9.648438 11.648438 5.75 20 C 2.5 27 2.148438 34.902344 4.800781 42.148438 C 7.449219 49.402344 12.75 55.25 19.800781 58.5 C 23.699219 60.300781 27.851562 61.25 32.050781 61.25 C 35.398438 61.25 38.75 60.648438 42 59.5 C 49.300781 56.851562 55.101562 51.550781 58.351562 44.5 C 59.75 41.5 60.601562 38.351562 60.949219 35.101562 C 61.050781 34.300781 60.449219 33.550781 59.601562 33.449219 C 58.800781 33.351562 58.050781 33.949219 57.949219 34.800781 C 57.648438 37.699219 56.902344 40.550781 55.652344 43.25 C 52.699219 49.550781 47.5 54.300781 41 56.699219 C 34.5 59.050781 27.402344 58.75 21.152344 55.851562 C 20.199219 55.398438 19.300781 54.898438 18.402344 54.351562 C 19.25 54.300781 20.148438 54.050781 20.949219 53.601562 C 21.851562 53.101562 22.800781 52.5 23.851562 51.800781 C 24.550781 51.300781 25.148438 50.652344 25.601562 49.902344 C 26.101562 49 26.699219 48.050781 27 46.949219 C 28.949219 39.449219 22.449219 39.148438 22.25 37.5 C 22.050781 35.648438 24.449219 34.25 25.902344 32.800781 C 27.351562 31.351562 27.800781 29.101562 27.050781 27.800781 C 24.648438 23.5 18.949219 25.75 18.402344 30.347656 C 18.101562 33.097656 16.449219 35.898438 15.050781 37.347656 C 13.648438 38.75 10.902344 38 10.152344 35.949219 C 9.300781 33.648438 12.25 32.800781 11.800781 29.847656 C 11.699219 29.050781 10.851562 28.648438 9.800781 28.5 L 6.351562 28.597656 C 6.699219 26.097656 7.449219 23.648438 8.550781 21.347656 C 11.949219 13.800781 18.601562 8.550781 26.699219 6.800781 C 27.5 6.648438 28.050781 5.851562 27.851562 5 C 27.71875 4.300781 27.089844 3.792969 26.367188 3.808594 Z M 44.5 10 C 47.25 10 49.5 12.25 49.5 15 C 49.5 17.75 47.25 20 44.5 20 C 41.75 20 39.5 17.75 39.5 15 C 39.5 12.25 41.75 10 44.5 10 Z M 44.5 10 "/>
</g>
</svg>
